<svg xmlns="http://www.w3.org/2000/svg" viewBox="0 0 350 331"><path fill="#18161b" fill-rule="evenodd" d="M196 4c.057 7.15-1.622 8.322-2 14h1v1l13 1v1h62l2 3 6 2 1 2h3l2 3c3.388 2.441 3.649-.04 4 6-1.135.844-.145-.127-1 1l-7 1v1h-14c-.248.054-.336 1.269-2 1v-1h-8v-1h-4v-1l-10-1v-1h-10c-11.779-3.538-25.324-3.884-41-4-.666 1.3-2.89 2.78-3 3v5h-1v4l-2 1v2c-1.038 1.2-2.781.9-5 1-1.218-2.021-3.541-2.191-4-3v-6c-1.75-3.172-11.108-2.115-16-2v1h-4v1l-5 1-1 2h-2v1l-4 1-19 20-2 6-3 2v4h-1v4h-1v2h-1v18h1v4l2 1v3l7 6 1 2 4 1 1 2h2v1h3v1h2v1h4v1l4 1v1h4v1c7.313 2.172 14.433-2.914 20-4v-2l-12-1-1-2c-3.14-1.781-2.669 1.725-4-3h-1v-4c2.612-1.382 1.693-1.769 6-2 2.7 3.417 7.3 3.8 12 2h3l1-2h2l2-3c3.624-3.557 8.341-6.533 9-13h-6c-2.515-4.2-6.6-4.476-7-11h1v-1h3v-6h4v1c1.415.923 2.878 2.971 6 2v-1h2v-1c4.6-1.683 5.278 2.746 7-3 1.7-1.911.217-5.31 0-9 5.6-3.3 7-8.766 16-9l2 3h1v3c1 1.317 3.674.992 6 1 1.639-3.053 3.278-4.819 8-5 1.139 1.139 0 .4 2 1l1 12c-1.384.742-2.59 2.777-3 3h-4v1h1v1h4l6-8h2l3-4h6l6 5v6c-1.909 1.256-1.659 1.014-2 4h5c1.53-2.787 4.548-6.119 8-7v1c1.987 2.167 1.1 10.054 1 14h-1v3h-1l-6 7h-8c-1.466-2.719-3.078-4.57-7-5-1.382 2.612-1.769 1.693-2 6h8a15.683 15.683 0 0 1 1 6l-5-1c-1.094 2.078-1.611 1.771-2 5 3.1 1.643 1.8 1.9 7 2v1h8v3l-4 3v1l-4 1v1c-6.632 2.371-12.4-2.708-15-5l-1-2h-6v1h-1a39.688 39.688 0 0 1 1 8 39.688 39.688 0 0 1-8 1v4c9.076-.185 16.258-.1 22 3l1 2h3l1 2c5.446 5.1 6.992 8.412 7 19v11h-1v4h-1c-.973 2.223-.848 3.859-1 7 3.57-.315 5.966-1.195 8-3l1-2 6-2 1-2h3l2-3h2v-1h2v-1h2v-1h2l2-3 5-1 1-2 6-2 2-3 4-1 1-2h2l1-2h2l1-2 5-1 1-2h2l1-2h2l2-3 5-1 2-3 3-1 2-3 4-1v-1l10 1v11c-1.189.606-1.514 1.705-2 2h-2v1h-4v1h-2v1l-7 1v1h-2v1h-3v1h-2v1h-3l-1 2h-3l-1 2-16 7v1l-3 1-1 2h-2v1h-2v1h-2v1h-2v1l-3 1-2 3h-5l-4 5h-2l-2 3h-2v1h-2v1h-2v1h-2l-2 3-6 2-1 2-3 1v1l-3 1v8c-3.029 1.747-2.923 4.555-5 6l-4 1v1l-10 1v-1l-6-1v1h-3l-1 2h-2l-1 2h-3v1l-3 1-1 2-6 2-1 2c-3.994 2.178-5.078-1.665-6 5 3.3 2.689 5.045 8.766 5 15-1.184.638-1.457 1.653-2 2h-2v1h-2l-2 3-4 1-3 4h-2l-1 2h-2l-2 3-4 1v1l-8-1 1 11h1v2h1v4l2 1v3l2 1v3h1v2h1v3l2 1v2l3 2 1 4 8 7v1h5c1.691-2.044 2.314-.839 4-2l6-7 2-1 3-9 2-1v-6h1v-2h1v-5h1v-2l2-1 1-7 2-1v-4h1l2-6h1v-6h1c1.955-3.922 2.107-4.894 8-5v1h2l9 10h9v1l4 1c.223 5.267 1.5 8.147 4 11l2 1v9a12.71 12.71 0 0 1-5 1c-.855 4.861-3.018 7.057-9 7-1.139-1.139 0-.4-2-1v-11c-2.658-1.653-7.531-7.516-11-5-1.762 1.6-.886 1.919-2 4h-1v2h-1v4h-1l-1 4h-1l-1 8h-1v2h-1v4h-1l-1 4h-1v4h-1l-1 4-2 1v2l-2 1-1 5-8 7-1 2c-1.684 1.155-2.26.029-4 2h-14l-1-2h-3l-1-2h-3l-5-6-7-6v-2l-3-2v-2l-5-4v-3l-2-1v-2h-1v-2h-1v-2h-1v-2h-1v-2h-1l-1-4-2-1v-3h-1c-1.722-3.4-.93-4.856-5-6-1.817 3.384-3.583 4.986-9 5v-1h-2v-1l-2-1v-9l-9 2-2 3h-5l-3 4h-2v1h-2v1h-2v1h-2l-1 2h-2l-1 2h-2v1h-3l-1 2h-2v1h-2v1h-2v1h-2l-2 3h-4v1h-2l-2 3h-4v1c-2.147 1.634-2.578 1.388-3 5 1.783 1.934 1.1 8.393 1 12a12.2 12.2 0 0 0-2 2H55c-.622-1.355-1.3-1.065-2-2-.879-1.169-.054-4.042-3-3v1h-3l-3 4h-2v1h-2l-2 3h-1l-1 10-3 2c-4.4 6.08-5 5.01-15 5-1.841-1.719-8.985-2.475-12-3l1-19 7-6v-1h11c2.2 3.178 3.429.868 7 0v-3c-2.48-1.5-.627-1.207-2-3l-2-1v-1l-3-1v-7c4.977-3.132 1.959-5.976 11-6v8c2.651 1 6.944 1.041 11 1l1-5h1c1.138-3.732-2.245-14.4-3-17v-9h-1v-45h1v-2h1l1-8 8-7h20v1l14 1v-9a8.336 8.336 0 0 0 2-2h4v-1h2v-1h3l1-2 4-1v-1h2v-1c3.058-1.619 5.366-1.887 10-2a7.666 7.666 0 0 0 2 2v5h1v-2h1v-5h1v-2h1v-4h1l1-4h1v-4h1v-2l2-1v-3h1v-2h1v-2l3-2v-3l3-2a16 16 0 0 0 3-8c-1.325-.494.315-.479-1-1h-4l-1-2h-3v-1h-2v-1h-2v-1l-3-1-1-2h-2l-2-3h-2l-3-4-2-1v-2l-4-3v-2l-4-3-1-7-2-1v-2h-1c-1.01-2.745.3-23.518 1-25l2-1 1-6h1v-2h1v-2l2-1v-3l3-2v-2l10-9 4-5h2l2-3 4-1 2-3 4-1v-1c2.314-1.887 3.7-4.129 7-5v-2h-19c-1.756-3.316-2.058-4.368-2-10 5.527-2.051 15.778-1.051 23-1l1-5 12 1v-1c1.5-.614 6.444-2.2 9-1l3 4s7.086-.994 9-1v-1h1V5h1c1.819-1.682 7.561-1.1 11-1Zm-31 192 4-1 1-2h14c.666 1.293 2.89 2.78 3 3v5h1v3h1v2l2 1c.877 1.508-.432 3.18 1 4h3c2.145-3.016 1.039-.522 4-2v-1h2l3-4 4-1 2-3h2l4-5h1v-3h1l5-6h2l1-2 5-4 1-4 4-3v-3l3-2v-3l2-1c1.024-2.392-.176-15.062-1-16-2.963-11.4-30.3-15.7-44-10v1l-4 1-2 3h-2l-3 4-8 7v2l-3 2-1 4-2 1v2l-2 1v2h-1v2h-1v3h-1v2h-1v3h-1c-1.738 5.489.564 13.714 1 18ZM64 284c2.245-.24 2.653-.094 4-1v-1h2l1-2h3v-1h2v-1h2v-1h2v-1l4-1 2-3h4l2-3 9-3 1-2h2l2-3h2v-1h2v-1h2v-1h2l1-2h3v-1l3-2v-1c-3.992-.336-4.625-1.041-5-5-2.3.278-2.55.19-4 1v1h-10c-2.037-3.412-3.866-3.107-4-9a6.749 6.749 0 0 0 4-5h-3c-2.748-4.579-6.806-4.484-7-12 2.369-.9 3.614-.931 5-3l-3-2v-1l-6-2v-1h-3l-1-2h-3v-1H68l-3 4h-1v3h-1v4h-1v6h-1v4h-1c-1.457 4.934-.04 28.305 1 32l1 16h1Z" data-name="Forma 1"/></svg>